<svg width="15" height="15" viewBox="0 0 15 15" fill="none" xmlns="http://www.w3.org/2000/svg">
<g id="Group 1435">
<path id="Vector" d="M13.4556 3.90068L7.28704 10.0683C6.67277 10.6825 4.84934 10.9669 4.44198 10.5596C4.03462 10.1523 4.31266 8.3292 4.92693 7.71502L11.102 1.54092C11.2543 1.37481 11.4386 1.24128 11.644 1.14838C11.8493 1.05548 12.0713 1.00511 12.2966 1.00037C12.5219 0.99563 12.7459 1.03658 12.9549 1.12076C13.164 1.20494 13.3538 1.33062 13.513 1.49018C13.6721 1.64974 13.7973 1.83987 13.8809 2.04912C13.9645 2.25837 14.0049 2.48239 13.9995 2.70766C13.9942 2.93294 13.9431 3.15481 13.8497 3.35985C13.7562 3.56489 13.6222 3.74888 13.4556 3.90068Z" stroke="#17942B" stroke-linecap="round" stroke-linejoin="round"/>
<path id="Vector_2" d="M6.6875 1.8125H3.52778C2.85737 1.8125 2.21446 2.09784 1.7404 2.60575C1.26636 3.11366 1 3.80254 1 4.52083V11.2917C1 12.01 1.26636 12.6988 1.7404 13.2067C2.21446 13.7147 2.85737 14 3.52778 14H10.4792C11.8758 14 12.375 12.7812 12.375 11.2917V7.90625" stroke="#17942B" stroke-linecap="round" stroke-linejoin="round"/>
</g>
</svg>
